<svg width="20" height="22" viewBox="0 0 20 22" fill="none" xmlns="http://www.w3.org/2000/svg">
<path d="M15.5 7.33333C17.0188 7.33333 18.25 6.10211 18.25 4.58333C18.25 3.06455 17.0188 1.83333 15.5 1.83333C13.9812 1.83333 12.75 3.06455 12.75 4.58333C12.75 6.10211 13.9812 7.33333 15.5 7.33333Z" stroke="#E1004D" stroke-width="2" stroke-linecap="round" stroke-linejoin="round"/>
<path d="M4.5 13.75C6.01878 13.75 7.25 12.5188 7.25 11C7.25 9.48122 6.01878 8.25 4.5 8.25C2.98122 8.25 1.75 9.48122 1.75 11C1.75 12.5188 2.98122 13.75 4.5 13.75Z" stroke="#E1004D" stroke-width="2" stroke-linecap="round" stroke-linejoin="round"/>
<path d="M15.5 20.1667C17.0188 20.1667 18.25 18.9354 18.25 17.4167C18.25 15.8979 17.0188 14.6667 15.5 14.6667C13.9812 14.6667 12.75 15.8979 12.75 17.4167C12.75 18.9354 13.9812 20.1667 15.5 20.1667Z" stroke="#E1004D" stroke-width="2" stroke-linecap="round" stroke-linejoin="round"/>
<path d="M6.87418 12.3842L13.135 16.0325" stroke="#E1004D" stroke-width="2" stroke-linecap="round" stroke-linejoin="round"/>
<path d="M13.1258 5.9675L6.87418 9.61583" stroke="#E1004D" stroke-width="2" stroke-linecap="round" stroke-linejoin="round"/>
</svg>
